M48
; DRILL file {KiCad 9.0.2+dfsg-1} date 2026-01-08T06:09:11+0100
; FORMAT={-:-/ absolute / metric / decimal}
; #@! TF.CreationDate,2026-01-08T06:09:11+01:00
; #@! TF.GenerationSoftware,Kicad,Pcbnew,9.0.2+dfsg-1
; #@! TF.FileFunction,MixedPlating,1,2
FMAT,2
METRIC
; #@! TA.AperFunction,Plated,PTH,ComponentDrill
T1C0.800
; #@! TA.AperFunction,Plated,PTH,ComponentDrill
T2C0.914
; #@! TA.AperFunction,Plated,PTH,ComponentDrill
T3C1.000
%
G90
G05
T1
X157.48Y-90.17
X157.48Y-92.71
X157.48Y-95.25
X157.48Y-97.79
X157.48Y-100.33
X157.48Y-102.87
X157.48Y-105.41
X157.48Y-107.95
X157.48Y-110.49
T2
X161.29Y-90.17
X161.29Y-92.71
X161.29Y-95.25
X161.29Y-97.79
X161.29Y-100.33
X161.29Y-102.87
X161.29Y-105.41
X161.29Y-107.95
X168.91Y-90.17
X168.91Y-92.71
X168.91Y-95.25
X168.91Y-97.79
X168.91Y-100.33
X168.91Y-102.87
X168.91Y-105.41
X168.91Y-107.95
T3
X177.546Y-110.49
X178.13Y-88.9
X189.75Y-89.75
X189.75Y-92.29
X189.75Y-94.83
X189.75Y-97.37
X189.75Y-99.91
X189.75Y-102.45
X189.75Y-104.99
X189.75Y-107.53
M30
